<?xml version="1.0" encoding="utf-8"?>
<!-- Generator: Adobe Illustrator 25.0.1, SVG Export Plug-In . SVG Version: 6.00 Build 0)  -->
<svg version="1.1" id="Layer_1" xmlns="http://www.w3.org/2000/svg" xmlns:xlink="http://www.w3.org/1999/xlink" x="0px" y="0px"
	 viewBox="0 0 598.9 533.3" style="enable-background:new 0 0 598.9 533.3;" xml:space="preserve">
<style type="text/css">
	.st0{fill:#61DAFB;}
</style>
<g transform="translate(-175.7 -78)">
	<path class="st0" d="M774.6,344.7c0-39.7-49.7-77.3-125.9-100.6c17.6-77.6,9.8-139.4-24.7-159.2c-7.9-4.6-17.2-6.8-27.3-6.8v27.2
		c5.6,0,10.1,1.1,13.9,3.2c16.6,9.5,23.8,45.8,18.2,92.4c-1.3,11.5-3.5,23.6-6.2,35.9c-23.9-5.9-50-10.4-77.5-13.3
		c-16.5-22.6-33.6-43.1-50.8-61c39.8-37,77.1-57.3,102.5-57.3V78c-33.6,0-77.5,23.9-122,65.4c-44.4-41.3-88.4-64.9-122-64.9v27.2
		c25.3,0,62.7,20.1,102.5,56.9c-17.1,17.9-34.2,38.3-50.4,60.9c-27.6,2.9-53.7,7.4-77.6,13.4c-2.8-12.2-4.9-24-6.3-35.4
		c-5.7-46.6,1.3-82.9,17.8-92.5c3.7-2.2,8.4-3.2,14-3.2V78.6c-10.3,0-19.5,2.2-27.6,6.8c-34.3,19.8-42,81.4-24.3,158.8
		c-75.9,23.4-125.4,60.9-125.4,100.5c0,39.7,49.7,77.3,125.9,100.6c-17.6,77.6-9.8,139.4,24.7,159.2c7.9,4.6,17.2,6.8,27.5,6.8
		c33.6,0,77.5-23.9,122-65.4c44.4,41.3,88.4,64.9,122,64.9c10.3,0,19.5-2.2,27.6-6.8c34.3-19.8,42-81.4,24.3-158.8
		C725.1,421.9,774.6,384.3,774.6,344.7L774.6,344.7z M615.6,263.3c-4.5,15.7-10.1,32-16.5,48.2c-5-9.8-10.3-19.5-16-29.3
		c-5.6-9.8-11.6-19.3-17.6-28.6C582.9,256.2,599.7,259.4,615.6,263.3L615.6,263.3z M559.7,393.3c-9.5,16.5-19.3,32.1-29.4,46.6
		c-18.2,1.6-36.6,2.4-55.2,2.4c-18.4,0-36.9-0.9-54.9-2.3c-10.1-14.5-20-30-29.5-46.4c-9.3-16-17.7-32.2-25.4-48.6
		c7.6-16.4,16.1-32.7,25.3-48.7c9.5-16.5,19.3-32.1,29.4-46.6c18.2-1.6,36.6-2.4,55.2-2.4c18.4,0,36.9,0.9,54.9,2.3
		c10.1,14.5,20,30,29.5,46.4c9.3,16,17.7,32.2,25.4,48.6C577.3,361,568.9,377.3,559.7,393.3L559.7,393.3z M599.2,377.4
		c6.6,16.4,12.2,32.7,16.8,48.6c-16,3.9-32.8,7.2-50.3,9.8c6-9.4,12-19,17.6-28.9C588.9,397.1,594.2,387.2,599.2,377.4L599.2,377.4z
		 M475.4,507.7c-11.4-11.7-22.7-24.8-33.9-39.1c11,0.5,22.2,0.9,33.6,0.9c11.5,0,22.8-0.2,33.9-0.9C498,482.9,486.6,496,475.4,507.7
		z M384.6,435.8c-17.3-2.6-34.1-5.7-50-9.6c4.5-15.7,10.1-32,16.5-48.2c5,9.8,10.3,19.5,16,29.3S378.6,426.5,384.6,435.8z
		 M474.8,181.8c11.4,11.7,22.7,24.8,33.9,39.1c-11-0.5-22.2-0.9-33.6-0.9c-11.5,0-22.8,0.2-33.9,0.9
		C452.2,206.5,463.5,193.5,474.8,181.8z M384.4,253.7c-6,9.4-12,19-17.6,28.9c-5.6,9.8-10.9,19.5-15.9,29.3
		c-6.6-16.4-12.2-32.7-16.8-48.6C350.1,259.5,367,256.2,384.4,253.7L384.4,253.7z M274,406.5c-43.2-18.4-71.2-42.6-71.2-61.8
		s28-43.5,71.2-61.8c10.5-4.5,22-8.5,33.8-12.3c7,23.9,16.1,48.8,27.5,74.3c-11.2,25.4-20.3,50.2-27.1,74
		C296.1,415.2,284.6,411,274,406.5L274,406.5z M339.6,580.9c-16.6-9.5-23.8-45.8-18.2-92.4c1.3-11.5,3.5-23.6,6.2-35.9
		c23.9,5.9,50,10.4,77.5,13.3c16.5,22.6,33.6,43.1,50.8,61c-39.8,37-77.1,57.3-102.5,57.3C347.9,584.1,343.3,583,339.6,580.9
		L339.6,580.9z M629.2,487.9c5.7,46.6-1.3,82.9-17.8,92.5c-3.7,2.2-8.4,3.2-14,3.2c-25.3,0-62.7-20.1-102.5-56.9
		c17.1-17.9,34.2-38.3,50.4-60.9c27.6-2.9,53.7-7.4,77.6-13.4C625.7,464.7,627.9,476.6,629.2,487.9z M676.2,406.5
		c-10.5,4.5-22,8.5-33.8,12.3c-7-23.9-16.1-48.8-27.5-74.3c11.2-25.4,20.3-50.2,27.1-74c12.1,3.8,23.6,7.9,34.3,12.5
		c43.2,18.4,71.2,42.6,71.2,61.8C747.4,363.9,719.4,388.2,676.2,406.5L676.2,406.5z"/>
	<circle class="st0" cx="475" cy="344.7" r="55.8"/>
</g>
</svg>
